<?xml version="1.0" standalone="no"?>
<!DOCTYPE svg PUBLIC "-//W3C//DTD SVG 20010904//EN"
 "http://www.w3.org/TR/2001/REC-SVG-20010904/DTD/svg10.dtd">
<svg version="1.0" xmlns="http://www.w3.org/2000/svg"
 width="900.000000pt" height="288.000000pt" viewBox="0 0 900.000000 288.000000"
 preserveAspectRatio="xMidYMid meet">
<metadata>
Created by potrace 1.10, written by Peter Selinger 2001-2011
</metadata>
<g transform="translate(0.000000,288.000000) scale(0.100000,-0.100000)"
fill="#708090" stroke="none">
<path d="M1205 2773 c-60 -12 -153 -36 -170 -43 -11 -5 -47 -18 -80 -28 -102
-34 -218 -98 -330 -181 -56 -41 -194 -174 -240 -231 -74 -92 -195 -307 -215
-385 -48 -183 -59 -235 -70 -332 -10 -89 -10 -137 -1 -225 12 -111 44 -266 62
-300 5 -10 9 -25 9 -34 0 -9 6 -28 14 -42 8 -15 29 -58 47 -97 18 -38 40 -81
49 -95 90 -137 123 -180 187 -245 73 -74 203 -185 218 -185 4 0 26 -12 49 -28
22 -15 73 -42 111 -61 39 -18 82 -40 97 -47 14 -8 35 -14 46 -14 12 0 23 -4
26 -9 3 -4 25 -11 48 -15 24 -4 63 -14 88 -23 37 -14 86 -17 270 -16 203 0
231 2 289 22 35 11 74 21 87 21 12 0 26 5 29 10 3 6 15 10 27 10 11 0 32 6 46
14 15 8 61 31 102 50 142 67 223 124 341 238 98 93 225 266 250 337 6 17 15
31 20 31 5 0 9 6 9 13 0 7 9 29 20 50 11 20 20 44 20 52 0 8 4 23 9 33 17 31
41 119 50 186 5 36 12 70 16 76 11 18 9 333 -3 370 -6 19 -15 62 -20 95 -27
167 -122 373 -248 536 -54 71 -178 195 -225 224 -20 13 -42 29 -50 37 -42 39
-214 131 -299 158 -36 12 -74 26 -85 31 -22 10 -85 26 -155 39 -45 9 -407 11
-445 3z m290 -537 c20 -14 40 -49 70 -121 9 -22 23 -55 31 -73 8 -18 14 -39
14 -46 0 -8 7 -19 15 -26 8 -7 15 -21 15 -32 0 -11 6 -32 13 -46 8 -15 22 -45
31 -67 10 -22 24 -53 32 -68 8 -16 14 -33 14 -39 0 -5 14 -39 30 -75 17 -35
30 -68 30 -73 0 -8 25 -64 51 -112 5 -10 9 -23 9 -29 0 -6 6 -25 14 -42 8 -18
24 -54 36 -82 11 -27 25 -58 30 -67 6 -10 10 -22 10 -28 0 -6 14 -40 30 -75
17 -35 30 -69 30 -76 0 -6 7 -23 14 -37 58 -105 66 -184 26 -227 -18 -20 -33
-25 -69 -25 -42 0 -53 6 -121 63 -42 34 -91 73 -109 87 -18 14 -38 30 -44 35
-69 58 -251 207 -345 280 -7 5 -21 17 -30 26 -37 33 -100 79 -110 79 -6 0 -14
-10 -17 -22 -6 -21 -26 -68 -46 -110 -5 -10 -9 -23 -9 -29 0 -7 -9 -30 -19
-53 -11 -23 -34 -79 -51 -126 -57 -150 -93 -220 -115 -226 -11 -3 -51 -4 -89
-2 -80 3 -99 19 -78 62 7 14 16 36 21 49 81 196 114 275 122 289 5 10 18 46
30 80 12 35 25 68 29 73 5 6 18 35 30 65 26 68 48 120 61 143 5 9 16 39 25 65
9 26 24 65 34 87 33 72 50 113 50 118 0 3 14 36 31 74 17 37 37 82 45 100 8
17 14 36 14 41 0 6 6 23 14 39 24 45 46 100 46 111 0 6 15 27 34 46 37 40 84
48 121 22z"/>
<path d="M1434 1913 c-3 -10 -10 -27 -14 -38 -5 -11 -18 -40 -28 -65 -11 -25
-27 -67 -37 -95 -10 -27 -22 -54 -26 -60 -13 -19 -44 -120 -41 -135 3 -13 406
-339 447 -363 11 -6 15 -3 15 13 0 20 -2 26 -33 88 -9 19 -17 38 -17 44 0 5
-6 24 -14 41 -7 18 -23 57 -36 87 -12 30 -26 64 -31 75 -5 11 -24 61 -44 110
-20 50 -40 99 -44 110 -5 11 -18 45 -31 75 -12 30 -26 63 -31 72 -5 10 -9 24
-9 32 0 23 -19 29 -26 9z"/>
<path d="M2910 1623 c0 -164 2 -184 15 -173 8 7 15 21 15 32 0 11 9 31 20 45
11 14 18 29 15 33 -2 4 4 15 15 25 11 10 20 26 20 37 0 10 4 18 10 18 5 0 12
11 16 25 3 14 9 25 13 25 3 0 16 17 29 38 13 20 37 47 54 59 l31 22 -127 0
-126 0 0 -186z"/>
<path d="M3259 1803 c0 -5 1 -80 2 -168 5 -387 -1 -640 -16 -692 l-13 -42 174
0 c96 -1 174 3 174 8 0 5 -8 19 -18 32 -17 22 -19 51 -18 429 1 223 5 410 8
416 4 6 5 14 1 18 -9 9 -293 8 -294 -1z"/>
<path d="M3700 1763 c23 -27 46 -58 51 -70 5 -13 13 -23 19 -23 5 0 10 -9 10
-20 0 -10 6 -23 13 -27 6 -4 21 -26 32 -48 10 -22 24 -47 31 -55 6 -8 15 -30
19 -48 4 -18 12 -31 18 -29 8 2 11 61 12 185 l0 182 -123 0 -124 0 42 -47z"/>
<path d="M6470 1795 c-7 -8 -20 -15 -29 -15 -21 0 -82 -56 -114 -106 -26 -40
-31 -71 -28 -196 1 -44 6 -72 16 -82 8 -8 15 -19 15 -23 0 -11 55 -53 68 -53
5 0 15 -7 22 -15 7 -8 20 -15 30 -15 10 0 20 -7 24 -15 3 -8 16 -15 29 -15 14
0 30 -7 37 -15 7 -8 25 -15 40 -15 15 0 33 -7 40 -15 7 -8 21 -15 30 -15 10 0
33 -8 52 -17 18 -9 45 -23 61 -30 70 -36 108 -114 86 -181 -6 -20 -18 -45 -27
-54 -14 -16 -13 -18 5 -18 41 0 141 87 181 157 14 26 17 189 3 198 -5 3 -12
19 -16 35 -4 17 -13 30 -21 30 -8 0 -13 3 -13 8 4 23 -3 34 -17 28 -9 -3 -12
-2 -9 4 8 14 -35 60 -56 60 -9 0 -22 7 -29 15 -7 8 -23 15 -35 15 -13 0 -25 4
-27 9 -1 5 -16 11 -33 13 -16 2 -35 9 -41 17 -6 8 -20 15 -32 16 -11 0 -28 7
-36 15 -9 7 -29 13 -45 14 -18 1 -27 5 -24 14 3 7 -3 12 -13 12 -32 0 -105 76
-111 115 -9 55 4 98 35 117 18 12 22 18 11 18 -9 0 -22 -7 -29 -15z"/>
<path d="M6940 1775 c-6 -20 -9 -43 -6 -52 5 -13 0 -15 -35 -9 -22 4 -48 13
-56 22 -9 8 -18 12 -21 9 -4 -3 -2 -9 4 -13 16 -12 74 -89 74 -100 0 -5 7 -15
15 -22 8 -7 15 -24 15 -39 0 -27 15 -59 24 -51 7 7 10 279 4 286 -4 3 -11 -11
-18 -31z"/>
<path d="M7253 1786 c-33 -34 -32 -102 1 -137 22 -23 33 -27 89 -28 82 -1 101
17 103 95 2 77 -17 94 -104 94 -57 0 -70 -4 -89 -24z"/>
<path d="M5584 1718 c-7 -25 -12 -31 -74 -101 -55 -61 -154 -136 -184 -139
-11 0 -1 -4 24 -7 l45 -6 5 -248 5 -248 34 -34 c23 -24 43 -35 63 -35 16 0 36
-7 44 -15 24 -23 144 -17 144 7 0 5 -9 12 -20 15 -11 3 -20 10 -20 16 0 6 -7
18 -16 28 -13 15 -16 54 -17 259 -1 133 0 246 3 251 3 4 44 10 90 12 l85 3
-87 2 -88 2 -2 58 c-1 31 -1 90 0 130 0 55 -3 72 -13 72 -8 0 -17 -10 -21 -22z
m-117 -650 c-2 -13 -4 -5 -4 17 -1 22 1 32 4 23 2 -10 2 -28 0 -40z m33 -58
c0 -14 -7 -20 -22 -20 -20 0 -21 1 -3 20 10 11 20 20 22 20 1 0 3 -9 3 -20z"/>
<path d="M7872 1728 c-7 -7 -12 -16 -12 -21 0 -34 -157 -187 -225 -218 l-40
-19 43 0 42 0 1 -147 c0 -82 0 -193 0 -248 -1 -84 2 -104 18 -122 11 -13 24
-23 29 -23 5 0 12 -7 16 -15 3 -9 19 -15 41 -15 19 0 35 -4 35 -9 0 -17 40
-23 101 -16 61 7 76 20 37 30 -14 4 -31 23 -42 48 -17 36 -20 66 -21 252 0
115 2 221 5 235 4 14 16 27 31 31 l24 7 -26 1 c-25 1 -26 3 -31 84 -3 45 -4
103 -2 130 3 48 -3 56 -24 35z"/>
<path d="M4165 1466 c-11 -9 -26 -16 -33 -16 -23 0 -102 -82 -122 -125 -30
-66 -45 -151 -32 -180 7 -14 12 -37 12 -51 0 -13 8 -39 18 -57 20 -38 84 -107
99 -107 6 0 16 -7 23 -15 7 -8 27 -15 45 -15 17 0 47 -7 64 -16 23 -12 48 -15
84 -11 60 7 142 29 154 41 4 5 -2 5 -14 2 -39 -12 -122 -9 -137 6 -34 30 -46
38 -56 38 -6 0 -9 4 -6 8 3 5 -2 19 -11 32 -9 13 -18 35 -19 48 -2 13 -9 32
-18 41 -11 13 -14 44 -11 164 2 81 8 153 13 160 6 7 12 23 14 37 2 20 -2 26
-22 28 -14 2 -34 -4 -45 -12z m-78 -338 c-2 -13 -4 -5 -4 17 -1 22 1 32 4 23
2 -10 2 -28 0 -40z m-2 -68 c3 -5 -3 -10 -15 -10 -12 0 -18 5 -15 10 3 6 10
10 15 10 5 0 12 -4 15 -10z"/>
<path d="M4376 1452 c8 -17 15 -68 17 -123 l3 -94 102 -3 102 -3 -6 43 c-4 24
-10 45 -14 48 -4 3 -10 17 -14 33 -3 15 -11 27 -16 27 -6 0 -10 9 -10 20 0 11
-7 20 -15 20 -8 0 -15 4 -15 9 0 16 -79 51 -115 51 -33 0 -33 0 -19 -28z"/>
<path d="M4820 1460 c-63 -51 -73 -63 -82 -98 -12 -46 -12 -58 0 -106 10 -38
82 -116 108 -116 7 0 14 -7 18 -15 3 -8 12 -15 19 -15 8 0 20 -7 27 -15 7 -8
21 -15 31 -15 11 0 19 -4 19 -10 0 -5 11 -12 25 -16 14 -3 25 -13 25 -20 0 -8
7 -17 15 -20 11 -5 15 -21 15 -60 0 -39 -4 -56 -15 -60 -8 -4 -15 -10 -15 -15
0 -14 27 -10 44 6 8 8 28 15 45 15 19 0 38 8 48 20 10 11 23 20 30 20 7 0 13
7 13 15 0 7 7 18 16 23 26 14 28 129 3 150 -11 9 -19 21 -19 27 -1 24 -153
120 -172 109 -7 -4 -8 -3 -4 4 4 6 -5 17 -21 26 -15 8 -45 31 -66 51 -35 34
-38 41 -35 84 2 43 1 46 -22 48 -14 2 -36 -6 -50 -17z m262 -492 c-9 -9 -12
-7 -12 12 0 19 3 21 12 12 9 -9 9 -15 0 -24z"/>
<path d="M7210 1472 c0 -4 5 -13 10 -18 7 -7 10 -103 8 -282 l-3 -271 123 0
c67 1 124 5 127 10 3 4 -4 18 -15 29 -20 20 -21 30 -19 265 2 211 4 245 18
250 13 5 14 7 1 15 -18 12 -250 13 -250 2z m207 -254 c-2 -13 -4 -5 -4 17 -1
22 1 32 4 23 2 -10 2 -28 0 -40z m0 -180 c-2 -13 -4 -5 -4 17 -1 22 1 32 4 23
2 -10 2 -28 0 -40z"/>
<path d="M7978 1473 c12 -2 32 -2 45 0 12 2 2 4 -23 4 -25 0 -35 -2 -22 -4z"/>
<path d="M8336 1465 c-8 -8 -21 -15 -29 -15 -22 0 -99 -79 -124 -126 -27 -52
-33 -227 -8 -259 8 -11 15 -27 15 -35 0 -19 72 -100 88 -100 8 0 20 -7 28 -15
9 -8 28 -15 44 -15 15 0 41 -7 56 -15 36 -19 107 -19 159 0 22 8 48 15 57 15
9 0 20 5 24 11 4 7 0 9 -12 6 -11 -3 -40 -8 -65 -12 -41 -5 -49 -3 -80 24 -19
17 -40 31 -47 31 -7 0 -11 4 -7 10 3 5 -4 26 -15 47 -11 21 -20 55 -20 76 0
21 -6 40 -12 42 -18 7 -19 225 -1 225 8 0 13 14 13 38 0 20 3 47 6 60 6 19 3
22 -24 22 -17 0 -37 -7 -46 -15z"/>
<path d="M8556 1433 c22 -66 29 -160 15 -177 -17 -20 6 -26 109 -26 82 0 110
7 93 24 -3 3 -8 23 -10 44 -2 20 -8 39 -13 40 -6 2 -10 10 -10 17 0 42 -113
125 -170 125 l-29 0 15 -47z"/>
<path d="M5176 1439 c-6 -20 -13 -25 -27 -22 -23 6 -26 -19 -5 -36 11 -9 15
-9 19 1 2 7 2 3 0 -9 -3 -23 18 -103 27 -103 5 0 2 132 -4 175 -2 17 -4 16
-10 -6z"/>
<path d="M6281 1103 c1 -186 5 -203 24 -110 5 24 10 27 47 27 27 0 45 -6 54
-17 7 -10 16 -14 21 -10 4 5 0 14 -10 21 -9 7 -17 20 -17 29 0 9 -9 21 -20 27
-11 6 -17 17 -14 25 3 7 -4 22 -15 32 -12 9 -21 25 -21 34 0 9 -7 30 -15 45
-8 16 -15 41 -15 56 0 15 -4 30 -10 33 -7 4 -10 -62 -9 -192z"/>
<path d="M4715 995 c0 -63 3 -115 8 -115 4 0 7 9 7 20 0 10 12 30 26 43 25 24
26 26 11 53 -8 16 -21 48 -28 72 -7 23 -15 42 -18 42 -3 0 -6 -52 -6 -115z"/>
</g>
</svg>
